<mxfile host="app.diagrams.net" modified="2022-03-16T21:02:14.592Z" agent="5.0 (Windows NT 10.0; Win64; x64) AppleWebKit/537.36 (KHTML, like Gecko) Chrome/99.0.4844.51 Safari/537.36" etag="vEYFSYL9e6Hn6pn1TZim" version="17.1.3" type="github">
  <diagram id="Oz_lHAD65HHYlttbv9pc" name="Page-1">
    <mxGraphModel dx="1422" dy="736" grid="1" gridSize="10" guides="1" tooltips="1" connect="1" arrows="1" fold="1" page="1" pageScale="1" pageWidth="850" pageHeight="1100" math="0" shadow="0">
      <root>
        <mxCell id="0" />
        <mxCell id="1" parent="0" />
        <mxCell id="_hrSMcuWkeoFRdev31Z1-2" value="Donut" style="strokeWidth=1;shadow=0;dashed=0;align=center;html=1;shape=mxgraph.mockup.containers.window;align=left;verticalAlign=top;spacingLeft=8;strokeColor2=#008cff;strokeColor3=#c4c4c4;fontColor=#666666;mainText=;fontSize=17;labelBackgroundColor=none;" parent="1" vertex="1">
          <mxGeometry x="150" y="80" width="550" height="700" as="geometry" />
        </mxCell>
        <mxCell id="_hrSMcuWkeoFRdev31Z1-14" value="&lt;div&gt;&lt;font style=&quot;font-size: 31px&quot;&gt;Doughnut Ordering System&lt;/font&gt;&lt;/div&gt;" style="text;html=1;strokeColor=none;fillColor=none;align=center;verticalAlign=middle;whiteSpace=wrap;rounded=0;" parent="1" vertex="1">
          <mxGeometry x="220" y="130" width="395" height="60" as="geometry" />
        </mxCell>
        <mxCell id="_hrSMcuWkeoFRdev31Z1-15" value="&lt;font style=&quot;font-size: 25px&quot;&gt;Regular $8.50&lt;/font&gt;" style="text;html=1;strokeColor=none;fillColor=none;align=center;verticalAlign=middle;whiteSpace=wrap;rounded=0;fontSize=30;" parent="1" vertex="1">
          <mxGeometry x="190" y="200" width="235" height="30" as="geometry" />
        </mxCell>
        <mxCell id="_hrSMcuWkeoFRdev31Z1-16" value="&lt;font style=&quot;font-size: 25px&quot;&gt;Gourmet $13.50&lt;/font&gt;" style="text;html=1;strokeColor=none;fillColor=none;align=center;verticalAlign=middle;whiteSpace=wrap;rounded=0;fontSize=30;" parent="1" vertex="1">
          <mxGeometry x="450" y="200" width="220" height="30" as="geometry" />
        </mxCell>
        <mxCell id="_hrSMcuWkeoFRdev31Z1-17" value="&lt;ul style=&quot;font-size: 15px&quot;&gt;&lt;li&gt;Glazed&lt;/li&gt;&lt;li&gt;Cinnamon&lt;/li&gt;&lt;li&gt;Strawberry Sprinkles&lt;/li&gt;&lt;li&gt;Strawberry Jam&lt;/li&gt;&lt;li&gt;Chocolate Sprinkles&lt;/li&gt;&lt;li&gt;Caramel&lt;/li&gt;&lt;li&gt;Vanilla&lt;/li&gt;&lt;li&gt;Chocolate Cheesecake&lt;/li&gt;&lt;/ul&gt;" style="text;html=1;strokeColor=none;fillColor=none;align=left;verticalAlign=top;whiteSpace=wrap;rounded=0;fontSize=21;labelPosition=center;verticalLabelPosition=middle;" parent="1" vertex="1">
          <mxGeometry x="215" y="230" width="210" height="180" as="geometry" />
        </mxCell>
        <mxCell id="_hrSMcuWkeoFRdev31Z1-18" value="&lt;ul style=&quot;font-size: 15px&quot;&gt;&lt;li&gt;Ice Cream&lt;/li&gt;&lt;li&gt;Tiramisu&lt;/li&gt;&lt;li&gt;Fudge Brownie&lt;/li&gt;&lt;li&gt;Cookies and Cream&lt;/li&gt;&lt;/ul&gt;" style="text;html=1;strokeColor=none;fillColor=none;align=left;verticalAlign=top;whiteSpace=wrap;rounded=0;fontSize=21;" parent="1" vertex="1">
          <mxGeometry x="465" y="230" width="190" height="100" as="geometry" />
        </mxCell>
        <mxCell id="Jg6d4vmUTRWqWpZmaG0K-16" value="Select a doughnut" style="html=1;shadow=0;dashed=0;shape=mxgraph.bootstrap.rrect;rSize=5;strokeColor=none;strokeWidth=1;fillColor=#6C767D;fontColor=#ffffff;whiteSpace=wrap;align=left;verticalAlign=middle;fontStyle=0;fontSize=14;spacingLeft=10;" vertex="1" parent="1">
          <mxGeometry x="280" y="474" width="160" height="40" as="geometry" />
        </mxCell>
        <mxCell id="Jg6d4vmUTRWqWpZmaG0K-17" value="" style="shape=triangle;direction=south;fillColor=#ffffff;strokeColor=none;perimeter=none;fontSize=15;" vertex="1" parent="Jg6d4vmUTRWqWpZmaG0K-16">
          <mxGeometry x="1" y="0.5" width="10" height="5" relative="1" as="geometry">
            <mxPoint x="-17" y="-2.5" as="offset" />
          </mxGeometry>
        </mxCell>
        <mxCell id="Jg6d4vmUTRWqWpZmaG0K-18" value="" style="html=1;shadow=0;dashed=0;shape=mxgraph.bootstrap.rrect;rSize=5;fillColor=#ffffff;strokeColor=#999999;fontSize=15;" vertex="1" parent="1">
          <mxGeometry x="280" y="517" width="170" height="110" as="geometry" />
        </mxCell>
        <mxCell id="Jg6d4vmUTRWqWpZmaG0K-19" value="Glazed" style="fillColor=none;strokeColor=none;align=left;spacing=20;fontSize=14;" vertex="1" parent="Jg6d4vmUTRWqWpZmaG0K-18">
          <mxGeometry width="170" height="30" relative="1" as="geometry">
            <mxPoint y="10" as="offset" />
          </mxGeometry>
        </mxCell>
        <mxCell id="Jg6d4vmUTRWqWpZmaG0K-20" value="Cinnmaon" style="fillColor=none;strokeColor=none;align=left;spacing=20;fontSize=14;" vertex="1" parent="Jg6d4vmUTRWqWpZmaG0K-18">
          <mxGeometry width="170" height="30" relative="1" as="geometry">
            <mxPoint y="40" as="offset" />
          </mxGeometry>
        </mxCell>
        <mxCell id="Jg6d4vmUTRWqWpZmaG0K-21" value="..." style="fillColor=none;strokeColor=none;align=left;spacing=20;fontSize=14;" vertex="1" parent="Jg6d4vmUTRWqWpZmaG0K-18">
          <mxGeometry width="170" height="30" relative="1" as="geometry">
            <mxPoint y="70" as="offset" />
          </mxGeometry>
        </mxCell>
        <mxCell id="Jg6d4vmUTRWqWpZmaG0K-22" value="&lt;font style=&quot;font-size: 17px&quot;&gt;$8.50&lt;/font&gt;" style="text;html=1;strokeColor=none;fillColor=none;align=center;verticalAlign=middle;whiteSpace=wrap;rounded=0;fontSize=15;" vertex="1" parent="1">
          <mxGeometry x="510" y="425" width="60" height="30" as="geometry" />
        </mxCell>
        <mxCell id="Jg6d4vmUTRWqWpZmaG0K-23" value="Vanilla" style="html=1;shadow=0;dashed=0;shape=mxgraph.bootstrap.rrect;rSize=5;strokeColor=none;strokeWidth=1;fillColor=#6C767D;fontColor=#ffffff;whiteSpace=wrap;align=left;verticalAlign=middle;fontStyle=0;fontSize=14;spacingLeft=10;" vertex="1" parent="1">
          <mxGeometry x="277.5" y="420" width="162.5" height="40" as="geometry" />
        </mxCell>
        <mxCell id="Jg6d4vmUTRWqWpZmaG0K-24" value="" style="shape=triangle;direction=south;fillColor=#ffffff;strokeColor=none;perimeter=none;fontSize=15;" vertex="1" parent="Jg6d4vmUTRWqWpZmaG0K-23">
          <mxGeometry x="1" y="0.5" width="10" height="5" relative="1" as="geometry">
            <mxPoint x="-17" y="-2.5" as="offset" />
          </mxGeometry>
        </mxCell>
        <mxCell id="Jg6d4vmUTRWqWpZmaG0K-25" value="&lt;font style=&quot;font-size: 17px&quot;&gt;$0.00&lt;/font&gt;" style="text;html=1;strokeColor=none;fillColor=none;align=center;verticalAlign=middle;whiteSpace=wrap;rounded=0;fontSize=15;" vertex="1" parent="1">
          <mxGeometry x="510" y="479" width="60" height="30" as="geometry" />
        </mxCell>
        <mxCell id="Jg6d4vmUTRWqWpZmaG0K-26" value="Select a doughnut" style="html=1;shadow=0;dashed=0;shape=mxgraph.bootstrap.rrect;rSize=5;strokeColor=none;strokeWidth=1;fillColor=#6C767D;fontColor=#ffffff;whiteSpace=wrap;align=left;verticalAlign=middle;fontStyle=0;fontSize=14;spacingLeft=10;" vertex="1" parent="1">
          <mxGeometry x="277.5" y="640" width="162.5" height="40" as="geometry" />
        </mxCell>
        <mxCell id="Jg6d4vmUTRWqWpZmaG0K-27" value="" style="shape=triangle;direction=south;fillColor=#ffffff;strokeColor=none;perimeter=none;fontSize=15;" vertex="1" parent="Jg6d4vmUTRWqWpZmaG0K-26">
          <mxGeometry x="1" y="0.5" width="10" height="5" relative="1" as="geometry">
            <mxPoint x="-17" y="-2.5" as="offset" />
          </mxGeometry>
        </mxCell>
        <mxCell id="Jg6d4vmUTRWqWpZmaG0K-30" value="&lt;font style=&quot;font-size: 17px&quot;&gt;$0.00&lt;/font&gt;" style="text;html=1;strokeColor=none;fillColor=none;align=center;verticalAlign=middle;whiteSpace=wrap;rounded=0;fontSize=15;" vertex="1" parent="1">
          <mxGeometry x="510" y="535" width="60" height="30" as="geometry" />
        </mxCell>
        <mxCell id="Jg6d4vmUTRWqWpZmaG0K-31" value="&lt;font style=&quot;font-size: 17px&quot;&gt;$0.00&lt;/font&gt;" style="text;html=1;strokeColor=none;fillColor=none;align=center;verticalAlign=middle;whiteSpace=wrap;rounded=0;fontSize=15;" vertex="1" parent="1">
          <mxGeometry x="510" y="590" width="60" height="30" as="geometry" />
        </mxCell>
        <mxCell id="Jg6d4vmUTRWqWpZmaG0K-33" value="&lt;font style=&quot;font-size: 17px&quot;&gt;$0.00&lt;/font&gt;" style="text;html=1;strokeColor=none;fillColor=none;align=center;verticalAlign=middle;whiteSpace=wrap;rounded=0;fontSize=15;" vertex="1" parent="1">
          <mxGeometry x="510" y="645" width="60" height="30" as="geometry" />
        </mxCell>
        <mxCell id="Jg6d4vmUTRWqWpZmaG0K-34" value="NEXT" style="strokeWidth=1;shadow=0;dashed=0;align=center;html=1;shape=mxgraph.mockup.buttons.button;strokeColor=#666666;fontColor=#ffffff;mainText=;buttonStyle=round;fontSize=17;fontStyle=1;fillColor=#008cff;whiteSpace=wrap;" vertex="1" parent="1">
          <mxGeometry x="370" y="710" width="110" height="40" as="geometry" />
        </mxCell>
      </root>
    </mxGraphModel>
  </diagram>
</mxfile>
